<svg xmlns="http://www.w3.org/2000/svg" xmlns:xlink="http://www.w3.org/1999/xlink" version="1.1" x="0px" y="0px" viewBox="0 0 100 125" enable-background="new 0 0 100 100" xml:space="preserve"><path d="M48.953,94.789c-0.678,0.125-1.673,0.349-2.967,0.503c-2.573,0.364-6.361,0.704-10.964,0.198  C30.453,94.942,25.02,93.424,20.004,90c-2.498-1.697-4.898-3.809-6.98-6.336c-2.076-2.526-3.906-5.404-5.314-8.558  c-2.827-6.306-3.918-12.939-3.687-18.834c0.186-5.954,1.842-11.088,3.818-15.064c0.535-0.973,0.948-1.957,1.511-2.784  c0.547-0.838,1.063-1.627,1.544-2.365c1.032-1.425,2.018-2.582,2.792-3.545c1.72-1.782,2.666-2.762,2.666-2.762  s-0.984,0.977-2.767,2.746c-0.403,0.482-0.852,1.018-1.343,1.604c-0.469,0.604-1.067,1.196-1.548,1.953  c-0.502,0.742-1.04,1.535-1.609,2.376c-0.561,0.848-1.014,1.829-1.567,2.814c-2.046,4-3.773,9.291-3.964,15.302  c-0.238,6.019,0.902,12.728,3.809,19.107c1.484,3.168,3.34,6.078,5.483,8.603c2.164,2.507,4.603,4.621,7.155,6.286  c5.117,3.368,10.603,4.775,15.167,5.229c4.6,0.423,8.346,0.008,10.884-0.405c1.278-0.178,2.252-0.422,2.919-0.558  c0.665-0.144,1.015-0.219,1.015-0.219S49.63,94.658,48.953,94.789z"/><path d="M96.488,56.266c-0.058-0.995-0.048-1.98-0.221-2.962c-0.467-3.927-1.511-7.611-3.042-10.875  c-1.515-3.27-3.406-6.133-5.402-8.61c-1.046-1.2-2.038-2.372-3.125-3.372c-1.021-1.065-2.134-1.939-3.157-2.814  c-4.193-3.396-8.13-5.338-10.87-6.495c-1.292-0.613-2.362-0.925-3.092-1.204c1.83,0.213,3.811,0.35,5.87,0.413  c4.519,0.154,8.547,0.091,11.447,0.052c2.894-0.06,4.671-0.097,4.671-0.097s-1.815-0.065-4.729-0.17  c-2.944-0.083-6.992-0.196-11.485-0.322c-4.499-0.145-8.599-0.48-11.473-1.27c-1.445-0.363-2.545-0.878-3.31-1.225  c-0.326-0.176-0.576-0.312-0.768-0.415c-0.187-0.194-0.296-0.308-0.296-0.308s0.08,0.096,0.227,0.271  c-0.201-0.109-0.31-0.167-0.31-0.167s0.13,0.081,0.355,0.222c0.131,0.157,0.301,0.359,0.522,0.623  c0.493,0.625,1.228,1.519,1.989,2.723c1.552,2.356,3.342,6.006,3.585,10.364c0.226,4.358-1.207,8.227-2.532,10.771  c-0.613,1.318-1.302,2.288-1.736,2.979c-0.437,0.689-0.681,1.074-0.681,1.074s0.271-0.373,0.76-1.041  c0.485-0.671,1.224-1.609,1.916-2.929c0.374-0.641,0.785-1.343,1.092-2.158c0.344-0.798,0.729-1.644,0.955-2.597  c0.129-0.47,0.286-0.946,0.396-1.443c0.078-0.504,0.157-1.018,0.238-1.541c0.105-0.521,0.113-1.059,0.124-1.605  c-0.005-0.544,0.073-1.099-0.01-1.654c-0.087-2.241-0.73-4.293-1.446-6.05c-0.723-1.768-1.648-3.215-2.475-4.37  c-0.82-1.165-1.6-2.008-2.125-2.593c-0.193-0.201-0.344-0.357-0.473-0.492c0.178,0.111,0.39,0.243,0.664,0.415  c0.754,0.402,1.857,0.979,3.314,1.418c1.557,0.496,3.483,0.856,5.624,1.11c0.734,0.303,1.859,0.647,3.215,1.318  c2.751,1.219,6.688,3.251,10.837,6.736c2.094,1.713,4.171,3.84,6.196,6.29c1.948,2.513,3.777,5.402,5.222,8.677  c1.455,3.261,2.488,6.938,2.86,10.802c0.173,1.95,0.245,3.941,0.146,5.952c-0.11,2.016-0.359,4.052-0.732,6.094  c-1.536,8.162-5.441,15.469-10.638,20.504c-5.166,5.109-11.434,7.807-16.818,8.838c-2.705,0.532-5.207,0.691-7.402,0.728  c-2.196-0.022-4.09-0.155-5.628-0.351c-0.769-0.104-1.451-0.197-2.044-0.278c-0.587-0.111-1.083-0.205-1.485-0.281  c-0.803-0.151-1.225-0.231-1.225-0.231s0.427,0.089,1.239,0.258c0.406,0.084,0.908,0.188,1.501,0.311  c0.6,0.091,1.291,0.196,2.069,0.314c1.56,0.22,3.478,0.381,5.708,0.43c2.229-0.01,4.772-0.156,7.527-0.682  c5.474-1.025,11.896-3.741,17.13-8.986c5.268-5.158,9.189-12.619,10.664-20.895c0.388-2.065,0.577-4.134,0.678-6.169  C96.532,58.293,96.562,57.256,96.488,56.266z"/><path d="M16.734,30.004c0,0.039-0.001,0.066-0.001,0.066s0.002-0.027,0.004-0.066c0.33,0.018,1.833,0.091,4.116,0.109  c2.593,0.013,6.194-0.056,10.177-0.465c3.98-0.417,7.591-1.106,10.102-1.986c1.252-0.439,2.229-0.937,2.779-1.436  c0.268-0.255,0.418-0.505,0.466-0.675c0.043-0.18,0.036-0.293,0.041-0.29c-0.006-0.004-0.006,0.112-0.065,0.289  c-0.06,0.16-0.229,0.392-0.508,0.622c-0.576,0.451-1.573,0.88-2.842,1.25c-2.543,0.747-6.169,1.295-10.128,1.705  c-3.963,0.404-7.519,0.602-10.079,0.72c-2.243,0.083-3.727,0.138-4.058,0.15c0.005-0.072,0.013-0.194,0.025-0.377  c0.01-0.296,0.047-0.729,0.145-1.271c0.18-1.088,0.61-2.648,1.475-4.419c1.714-3.548,5.226-7.842,9.946-11.399  c4.701-3.592,9.621-5.741,13.29-6.685c1.837-0.48,3.356-0.704,4.408-0.793c1.052-0.085,1.635-0.099,1.635-0.099  c0,0-0.591-0.021-1.664,0.018c-1.073,0.04-2.63,0.206-4.517,0.635c-3.768,0.84-8.847,2.934-13.597,6.591  c-4.77,3.622-8.191,8.065-9.772,11.688c-0.803,1.808-1.162,3.384-1.289,4.476c-0.073,0.545-0.085,0.972-0.082,1.264  c-0.003,0.18-0.005,0.301-0.006,0.372C16.693,30,16.667,30,16.667,30S16.693,30.002,16.734,30.004z"/><path d="M48.195,38.256c-1.934-3.187-2.893-6.525-3.322-8.965c-0.182-1.226-0.334-2.231-0.364-2.932  c-0.058-0.696-0.091-1.085-0.091-1.085s0.003,0.395,0.009,1.104c-0.021,0.708,0.068,1.733,0.189,3c0.316,2.5,1.164,5.976,3.178,9.24  c0.986,1.637,2.214,3.006,3.479,4.048c0.607,0.555,1.293,0.938,1.895,1.342c0.662,0.301,1.237,0.667,1.837,0.827  c0.291,0.098,0.567,0.19,0.829,0.278c0.265,0.078,0.525,0.107,0.763,0.159c0.477,0.094,0.885,0.174,1.228,0.167  c0.676,0.028,1.05,0.043,1.05,0.043s-0.378-0.045-1.057-0.127c-0.343-0.017-0.746-0.132-1.215-0.254  c-0.476-0.093-0.987-0.298-1.548-0.531C52.795,43.68,50.122,41.441,48.195,38.256z"/><path d="M54.68,4.281c4.348-0.147,10.438,0.09,16.94,1.717c6.485,1.603,12.079,4.52,15.067,7.822  c1.522,1.615,2.312,3.292,2.646,4.491c0.149,0.606,0.244,1.092,0.256,1.42c0.029,0.328,0.044,0.5,0.044,0.5  s-0.007-0.176-0.021-0.509c0.002-0.332-0.072-0.831-0.205-1.458c-0.299-1.234-1.049-2.994-2.578-4.686  c-2.986-3.469-8.681-6.547-15.246-8.142c-6.585-1.621-12.69-1.702-17.003-1.419c-2.163,0.137-3.896,0.351-5.086,0.519  c-1.188,0.184-1.842,0.285-1.842,0.285s0.669-0.073,1.879-0.206C50.742,4.497,52.5,4.346,54.68,4.281z"/><path d="M25.495,73.503c-1.157-1.154-2.08-2.428-2.789-3.666c-0.683-1.253-1.157-2.467-1.438-3.522  c-0.181-0.521-0.23-1.014-0.329-1.44c-0.101-0.427-0.134-0.805-0.162-1.111c-0.064-0.612-0.1-0.956-0.1-0.956  s0.006,0.349,0.018,0.973c0.001,0.313,0.01,0.694,0.081,1.139c0.065,0.442,0.093,0.959,0.243,1.499  c0.217,1.103,0.663,2.371,1.32,3.696c0.697,1.303,1.638,2.641,2.845,3.828c2.437,2.384,5.36,3.525,7.46,3.939  c1.061,0.194,1.926,0.291,2.524,0.28c0.595,0.01,0.924,0.015,0.924,0.015s-0.334-0.035-0.932-0.099  c-0.6-0.041-1.461-0.204-2.498-0.468C30.598,77.065,27.835,75.808,25.495,73.503z"/><text x="0" y="115" fill="#bf2a2a" font-size="5px" font-weight="bold" font-family="'Helvetica Neue', Helvetica, Arial-Unicode, Arial, Sans-serif"></text><text x="0" y="120" fill="#bf2a2a" font-size="5px" font-weight="bold" font-family="'Helvetica Neue', Helvetica, Arial-Unicode, Arial, Sans-serif"></text></svg>