<svg xmlns="http://www.w3.org/2000/svg" viewBox="0 0 64 64"><defs><style>.cls-1{fill:#5dad00;}.cls-2{fill:#74d800;}.cls-3{fill:#ff7f00;}</style></defs><title>Veg Tomato</title><g id="Layer_2" data-name="Layer 2"><g id="Layer_1-2" data-name="Layer 1"><path class="cls-1" d="M32,30a2,2,0,0,1-2-2V2a2,2,0,0,1,4,0V28A2,2,0,0,1,32,30Z"/><path class="cls-2" d="M32,26h0a2,2,0,0,1-2-2c0-.62.1-15.29,9.11-19.79a2,2,0,1,1,1.79,3.58C34.1,11.18,34,23.87,34,24A2,2,0,0,1,32,26Z"/><path class="cls-2" d="M32,22a2,2,0,0,1-2-2c0-.12.18-12,16-12a2,2,0,0,1,0,4c-11.86,0-12,7.67-12,8A2,2,0,0,1,32,22Z"/><path class="cls-2" d="M32,16a2,2,0,0,1-1.88-1.32c-.11-.26-2-4.34-11.79-2.7A2,2,0,1,1,17.67,8c13.53-2.26,16.12,5,16.23,5.34A2,2,0,0,1,32,16Z"/><path class="cls-3" d="M32,16C14,12,0,16.33,0,34S16,64,32,64,64,51.67,64,34,50,12,32,16Z"/><path class="cls-2" d="M32,18a2,2,0,0,1-1.41-.58c-.48-.46-4.77-4.41-9.18,0a2,2,0,0,1-2.83-2.83c5.86-5.86,12.26-2.56,14.83,0A2,2,0,0,1,32,18Z"/><path class="cls-2" d="M46,18a2,2,0,0,1-.89-.21,13.35,13.35,0,0,0-8.53-1.36,7.23,7.23,0,0,1-7.89-4.07C27.77,10.37,26.21,8,24,8a2,2,0,0,1,0-4c2.39,0,5.77,1.16,8.31,6.68a3.23,3.23,0,0,0,3.53,1.82,17.52,17.52,0,0,1,11,1.72A2,2,0,0,1,46,18Z"/></g></g></svg>